<?xml version="1.0" encoding="UTF-8"?>
<svg id="Layer_1" xmlns="http://www.w3.org/2000/svg" version="1.1" viewBox="0 0 99 76.56">
  <!-- Generator: Adobe Illustrator 30.0.0, SVG Export Plug-In . SVG Version: 2.1.1 Build 123)  -->
  <path id="Groucho_Mask" d="M94.3,14.52C91.9,5.92,83.9-.38,74.4.02c-7.8.3-14.6,5.4-17.5,12.3-2.1-1.4-4.7-2.2-7.4-2.2s-5.2.8-7.4,2.2C39.1,5.12,32,.02,23.8.02,14.7.02,7.1,6.12,4.7,14.52c-.4,1.3-1.6,2.2-2.9,2.2H0v6.2h1.8c1.4,0,2.6.9,2.9,2.2,2.4,8.6,10.4,14.9,19.9,14.5,9.8-.4,18-8.2,18.9-18,.9-2.4,3.3-4.1,6-4.1s5,1.7,6,4c.9,10.1,9.4,18.1,19.7,18.1,9.1,0,16.7-6.1,19.1-14.5.4-1.3,1.6-2.2,2.9-2.2h1.8v-6.2h-1.8c-1.3,0-2.6-.9-2.9-2.2ZM23.8,33.62c-7.6,0-13.8-6.2-13.8-13.8s6.2-13.8,13.8-13.8,13.8,6.2,13.8,13.8-6.2,13.8-13.8,13.8ZM75.2,33.62c-7.6,0-13.8-6.2-13.8-13.8s6.2-13.8,13.8-13.8,13.8,6.2,13.8,13.8-6.2,13.8-13.8,13.8ZM98,56.42c-2.4,7.4-8.6,19.3-23.8,20.1-12.1.6-20.4-4.9-24.7-11-4.3,6.1-12.6,11.6-24.7,11-15.2-.7-21.4-12.6-23.8-20.1-.2-.6-1.1-3.7,1.6-2,.3.2.6.4.9.7h0c1.6,1,3.7,1.8,6.5,2,8.2.4,15.5-13.7,27-13.1,3,.1,7,.8,12.5,6.3,5.5-5.5,9.6-6.2,12.5-6.3,11.5-.6,18.7,13.6,27,13.1,2.8-.1,5-1,6.5-2h0c.3-.2.6-.4.9-.7,2.7-1.7,1.8,1.4,1.6,2Z"/>
</svg>