<?xml version="1.0" encoding="UTF-8"?>
<svg id="Wordmark" xmlns="http://www.w3.org/2000/svg" viewBox="0 0 1025.03 106.18">
  <defs>
    <style>
      .cls-1 {
        fill: #d6d8e5;
      }

      .cls-2 {
        fill: blue;
      }
    </style>
  </defs>
  <path id="Writer" class="cls-1" d="M709.14,2.25h12.24l18.53,62.34,19.1-62.34h10.29l19.1,62.34,18.64-62.34h12.13l-24.37,80.07h-11.9l-18.76-61.65-18.76,61.65h-11.78l-24.48-80.07ZM847.48,34.27c-9.3,0-13.95,7.32-13.95,21.96v26.08h-11.09V24.67h11.09v11.09c1.3-3.89,3.17-6.71,5.61-8.46s5.68-2.63,9.72-2.63h6.98v9.61h-8.35ZM873.82.53v13.95h-12.35V.53h12.35ZM862.16,24.67h11.09v57.65h-11.09V24.67ZM902.29,6.59v18.07h17.04v9.61h-17.04v28.83c0,3.05.78,5.41,2.34,7.09,1.56,1.68,3.76,2.52,6.58,2.52h8.12v9.61h-9.04c-5.87,0-10.52-1.68-13.95-5.03-3.43-3.35-5.15-7.97-5.15-13.84v-29.17h-11.78v-9.61h11.78V6.59h11.09ZM977.34,63.56c-1.07,5.95-4,10.71-8.81,14.3-4.8,3.58-10.75,5.38-17.84,5.38-8.62,0-15.59-2.94-20.93-8.81-5.34-5.87-8.01-12.96-8.01-21.28s2.48-15.38,7.44-20.99c4.96-5.6,11.74-8.41,20.36-8.41s15.23,2.63,20.07,7.89c4.84,5.26,7.26,11.74,7.26,19.45,0,1.52-.08,2.97-.23,4.35h-44.04c.46,5.49,2.33,9.91,5.61,13.27,3.28,3.36,7.43,5.03,12.47,5.03,8.69,0,13.88-3.39,15.56-10.18h11.09ZM932.96,47.31h32.71c-.38-4.42-1.98-7.97-4.8-10.64-2.82-2.67-6.6-4-11.33-4-9.3,0-14.83,4.88-16.58,14.64ZM1011.56,34.27c-9.3,0-13.95,7.32-13.95,21.96v26.08h-11.09V24.67h11.09v11.09c1.3-3.89,3.17-6.71,5.61-8.46s5.68-2.63,9.72-2.63h6.98v9.61h-8.35Z"/>
  <path id="Forgetaboutit" class="cls-2" d="M5.13,2.25h51.36v10.52H17.02v23.91h31.91v10.52h-31.91v35.12H5.13V2.25ZM66.92,74.82c-5.61-5.61-8.41-12.72-8.41-21.33s2.8-15.73,8.41-21.33c5.6-5.6,12.72-8.41,21.33-8.41s15.71,2.8,21.28,8.41c5.57,5.61,8.35,12.72,8.35,21.33s-2.78,15.73-8.35,21.33c-5.57,5.6-12.66,8.41-21.28,8.41s-15.73-2.8-21.33-8.41ZM101.47,67.9c3.39-3.74,5.09-8.54,5.09-14.41s-1.7-10.68-5.09-14.41-7.8-5.6-13.21-5.6-9.93,1.87-13.33,5.6-5.09,8.54-5.09,14.41,1.7,10.68,5.09,14.41,7.83,5.6,13.33,5.6,9.82-1.87,13.21-5.6ZM151.9,34.27c-9.3,0-13.95,7.32-13.95,21.96v26.08h-11.1V24.67h11.1v11.09c1.3-3.89,3.16-6.71,5.6-8.46s5.68-2.63,9.72-2.63h6.98v9.61h-8.35ZM219.78,24.67v60.39c0,6.02-1.98,10.96-5.95,14.81-3.97,3.85-9.11,5.78-15.44,5.78h-27.8v-9.26h26.65c3.35,0,6.1-1.13,8.24-3.38,2.14-2.25,3.2-5.13,3.2-8.64v-9.38c-1.37,2.44-3.74,4.42-7.09,5.95-3.35,1.53-7.05,2.29-11.09,2.29-8.69,0-15.48-2.75-20.36-8.24s-7.32-12.66-7.32-21.5,2.44-15.92,7.32-21.45c4.88-5.53,11.63-8.29,20.25-8.29,3.81,0,7.36.78,10.64,2.35,3.28,1.56,5.83,3.64,7.66,6.23v-7.66h11.09ZM204.63,68.07c3.24-3.62,4.86-8.48,4.86-14.58s-1.62-10.96-4.86-14.58c-3.24-3.62-7.53-5.43-12.87-5.43s-9.61,1.83-12.81,5.49c-3.2,3.66-4.8,8.5-4.8,14.53s1.6,10.87,4.8,14.53c3.2,3.66,7.47,5.49,12.81,5.49s9.63-1.81,12.87-5.43ZM284.75,63.56c-1.07,5.95-4,10.71-8.81,14.3-4.8,3.58-10.75,5.38-17.84,5.38-8.62,0-15.59-2.94-20.93-8.81-5.34-5.87-8.01-12.96-8.01-21.28s2.48-15.38,7.44-20.99c4.96-5.6,11.74-8.41,20.36-8.41s15.23,2.63,20.07,7.89c4.84,5.26,7.26,11.74,7.26,19.45,0,1.52-.08,2.97-.23,4.35h-44.04c.46,5.49,2.33,9.91,5.61,13.27,3.28,3.36,7.43,5.03,12.47,5.03,8.69,0,13.88-3.39,15.56-10.18h11.09ZM240.37,47.31h32.71c-.38-4.42-1.98-7.97-4.8-10.64-2.82-2.67-6.6-4-11.33-4-9.3,0-14.83,4.88-16.58,14.64ZM309.95,6.59v18.07h17.04v9.61h-17.04v28.83c0,3.05.78,5.41,2.34,7.09,1.56,1.68,3.76,2.52,6.58,2.52h8.12v9.61h-9.04c-5.87,0-10.52-1.68-13.95-5.03-3.43-3.35-5.15-7.97-5.15-13.84v-29.17h-11.78v-9.61h11.78V6.59h11.09ZM374.78,29.64c4.54,3.93,6.81,9.09,6.81,15.5v37.17h-11.09v-9.38c-1.37,3.13-3.76,5.62-7.15,7.49-3.39,1.87-7.26,2.8-11.61,2.8-5.87,0-10.6-1.6-14.18-4.8-3.58-3.2-5.38-7.4-5.38-12.58,0-5.49,2.02-9.86,6.06-13.1,4.04-3.24,9.49-4.86,16.36-4.86h12.01c2.59,0,3.89-1.14,3.89-3.43,0-3.58-1.24-6.44-3.72-8.58-2.48-2.13-5.89-3.2-10.24-3.2-3.89,0-7.19,1.07-9.89,3.2-2.71,2.14-4.14,4.69-4.29,7.66h-10.3c.46-5.72,3.01-10.45,7.66-14.18,4.65-3.74,10.37-5.61,17.16-5.61,7.4,0,13.36,1.96,17.9,5.89ZM366.08,69.73c2.94-3.13,4.4-7.36,4.4-12.7v-1.37h-14.87c-3.81,0-6.84.9-9.09,2.69-2.25,1.79-3.37,4.21-3.37,7.26,0,2.59.99,4.71,2.97,6.35,1.98,1.64,4.57,2.46,7.78,2.46,5.19,0,9.25-1.56,12.18-4.69ZM411.87,80.66c-3.28-1.72-5.76-4.02-7.43-6.92v8.58h-11.09V.53h11.09v32.6c1.68-2.82,4.16-5.09,7.43-6.81,3.28-1.72,6.86-2.57,10.75-2.57,8.62,0,15.36,2.76,20.24,8.29,4.88,5.53,7.32,12.68,7.32,21.45s-2.44,16.01-7.32,21.5c-4.88,5.49-11.67,8.24-20.36,8.24-3.81,0-7.36-.86-10.64-2.57ZM434.12,68.02c3.24-3.66,4.86-8.5,4.86-14.53s-1.62-10.87-4.86-14.53-7.53-5.49-12.87-5.49-9.63,1.83-12.87,5.49-4.86,8.5-4.86,14.53,1.62,10.87,4.86,14.53,7.53,5.49,12.87,5.49,9.63-1.83,12.87-5.49ZM464.61,74.82c-5.6-5.61-8.41-12.72-8.41-21.33s2.8-15.73,8.41-21.33c5.61-5.6,12.72-8.41,21.33-8.41s15.71,2.8,21.28,8.41c5.57,5.61,8.35,12.72,8.35,21.33s-2.78,15.73-8.35,21.33c-5.57,5.6-12.66,8.41-21.28,8.41s-15.73-2.8-21.33-8.41ZM499.15,67.9c3.39-3.74,5.09-8.54,5.09-14.41s-1.7-10.68-5.09-14.41-7.8-5.6-13.21-5.6-9.93,1.87-13.33,5.6-5.09,8.54-5.09,14.41,1.7,10.68,5.09,14.41,7.84,5.6,13.33,5.6,9.82-1.87,13.21-5.6ZM575.44,82.32h-11.09v-10.18c-1.53,3.58-3.91,6.33-7.15,8.24s-7.03,2.86-11.38,2.86c-6.48,0-11.69-2.14-15.61-6.41s-5.89-9.84-5.89-16.7V24.67h11.1v33.29c0,4.57,1.24,8.27,3.72,11.09s5.74,4.23,9.78,4.23c4.5,0,8.2-1.64,11.09-4.92,2.9-3.28,4.35-7.43,4.35-12.47v-31.23h11.09v57.65ZM604.66,6.59v18.07h17.04v9.61h-17.04v28.83c0,3.05.78,5.41,2.35,7.09,1.56,1.68,3.76,2.52,6.58,2.52h8.12v9.61h-9.04c-5.87,0-10.52-1.68-13.95-5.03-3.43-3.35-5.15-7.97-5.15-13.84v-29.17h-11.78v-9.61h11.78V6.59h11.09ZM639.84.53v13.95h-12.35V.53h12.35ZM628.17,24.67h11.1v57.65h-11.1V24.67ZM668.31,6.59v18.07h17.04v9.61h-17.04v28.83c0,3.05.78,5.41,2.35,7.09,1.56,1.68,3.76,2.52,6.58,2.52h8.12v9.61h-9.04c-5.87,0-10.52-1.68-13.95-5.03-3.43-3.35-5.15-7.97-5.15-13.84v-29.17h-11.78v-9.61h11.78V6.59h11.09Z"/>
</svg>